# File created by Blade
# Date/Time:  Wed Jan 21 17:21:31 2015
# Frame Rate: 120.000 fps
#------------------------------------------------------
:FULLY-SPECIFIED
:DEGREES
1503
root 20.132717 35.236456 -22.707222 -179.089353 -0.477640 -178.726286
Spine -11.229739 2.945427 0.480774
Head 10.186095 -1.672542 -2.479703
LeftShoulder -12.866970 -32.091180 21.619181
LeftArm 0.821469 1.728485 -5.334260
LeftForeArm 13.238594 0.000000 -1.916451
LeftHand -9.932362 -0.000000 -1.552029
LeftHandThumb1 -26.253704 0.000000 33.147579
RightShoulder -11.544752 -1.567716 -14.556004
RightArm -1.022512 38.220820 8.386379
RightForeArm -35.518815 0.000000 5.062320
RightHand -8.573157 -0.000000 5.511456
RightHandThumb1 -24.326973 -0.000000 -32.862282
LeftUpLeg 10.319962 7.439578 5.716345
LeftLeg -6.166048 -0.000000 0.000000
LeftFoot -20.773188 25.395408 -13.033677
LeftToeBase 25.290963 -0.000000 -0.000000
RightUpLeg 8.604462 -14.064634 -4.023173
RightLeg -3.542054 -0.000000 0.000000
RightFoot -20.843455 -23.734692 16.737717
RightToeBase 25.883901 -0.000000 -0.000000
1504
root 20.133110 35.235899 -22.711134 -179.042940 -0.480614 -178.716926
Spine -11.273443 2.942167 0.496186
Head 10.234773 -1.697737 -2.515996
LeftShoulder -12.885947 -32.074851 21.616271
LeftArm 0.830960 1.686370 -5.320838
LeftForeArm 13.246305 -0.000000 -1.934995
LeftHand -9.932880 -0.000000 -1.560792
LeftHandThumb1 -26.253704 0.000000 33.147579
RightShoulder -11.549863 -1.534521 -14.559316
RightArm -1.028366 38.259421 8.363350
RightForeArm -35.581924 -0.000000 5.062449
RightHand -8.576820 -0.000000 5.473945
RightHandThumb1 -24.326973 -0.000000 -32.862282
LeftUpLeg 10.286280 7.448678 5.725095
LeftLeg -6.178486 -0.000000 0.000000
LeftFoot -20.766361 25.378264 -13.036532
LeftToeBase 25.287095 -0.000000 -0.000000
RightUpLeg 8.569514 -14.061952 -4.002338
RightLeg -3.551979 -0.000000 0.000000
RightFoot -20.842225 -23.727577 16.752320
RightToeBase 25.871455 -0.000000 -0.000000
1505
root 20.132239 35.234838 -22.713881 -179.001995 -0.480293 -178.715002
Spine -11.307028 2.950688 0.502909
Head 10.270535 -1.721173 -2.528847
LeftShoulder -12.884032 -32.075248 21.605532
LeftArm 0.820393 1.702058 -5.302977
LeftForeArm 13.224825 -0.000000 -1.929795
LeftHand -9.967753 -0.000000 -1.584364
LeftHandThumb1 -26.253704 0.000000 33.147579
RightShoulder -11.553050 -1.538654 -14.566144
RightArm -1.043213 38.297729 8.354606
RightForeArm -35.597901 -0.000000 5.089575
RightHand -8.614336 0.000000 5.447365
RightHandThumb1 -24.326973 -0.000000 -32.862282
LeftUpLeg 10.258293 7.448310 5.722234
LeftLeg -6.192382 -0.000000 0.000000
LeftFoot -20.765749 25.379756 -13.026079
LeftToeBase 25.280334 -0.000000 -0.000000
RightUpLeg 8.531357 -14.061955 -3.994328
RightLeg -3.551598 -0.000000 0.000000
RightFoot -20.842962 -23.728965 16.764233
RightToeBase 25.831904 -0.000000 -0.000000
1506
root 20.132398 35.233889 -22.716863 -178.958862 -0.485828 -178.713412
Spine -11.341305 2.936769 0.506877
Head 10.297496 -1.696263 -2.536605
LeftShoulder -12.907909 -32.104711 21.620026
LeftArm 0.812501 1.746674 -5.285266
LeftForeArm 13.187440 0.000000 -1.941419
LeftHand -9.953995 -0.000000 -1.589721
LeftHandThumb1 -26.253704 0.000000 33.147579
RightShoulder -11.534543 -1.499739 -14.567419
RightArm -1.088095 38.275566 8.307435
RightForeArm -35.585674 -0.000000 5.117543
RightHand -8.636034 -0.000000 5.468905
RightHandThumb1 -24.326973 -0.000000 -32.862282
LeftUpLeg 10.226784 7.437878 5.718682
LeftLeg -6.207026 -0.000000 0.000000
LeftFoot -20.773160 25.383460 -13.024263
LeftToeBase 25.287144 -0.000000 -0.000000
RightUpLeg 8.498923 -14.054790 -3.980161
RightLeg -3.562474 -0.000000 0.000000
RightFoot -20.847572 -23.758111 16.696817
RightToeBase 25.941813 -0.000000 -0.000000
1507
root 20.132623 35.233365 -22.719595 -178.916488 -0.496149 -178.709728
Spine -11.371008 2.941303 0.505584
Head 10.325807 -1.694179 -2.533241
LeftShoulder -12.922564 -32.158666 21.636819
LeftArm 0.810663 1.794370 -5.282435
LeftForeArm 13.179412 -0.000000 -1.938874
LeftHand -9.985769 -0.000000 -1.568251
LeftHandThumb1 -26.253704 0.000000 33.147579
RightShoulder -11.564636 -1.504114 -14.552503
RightArm -1.068890 38.247674 8.285662
RightForeArm -35.572432 0.000000 5.104935
RightHand -8.616391 0.000000 5.464807
RightHandThumb1 -24.326973 -0.000000 -32.862282
LeftUpLeg 10.194713 7.406920 5.722363
LeftLeg -6.212250 -0.000000 0.000000
LeftFoot -20.788273 25.342201 -13.059860
LeftToeBase 25.287069 -0.000000 -0.000000
RightUpLeg 8.465828 -14.067244 -3.967210
RightLeg -3.571476 -0.000000 0.000000
RightFoot -20.835659 -23.712428 16.812894
RightToeBase 25.775268 -0.000000 -0.000000
1508
root 20.131405 35.233074 -22.721574 -178.870686 -0.511943 -178.713920
Spine -11.407887 2.933552 0.500535
Head 10.354886 -1.675974 -2.542335
LeftShoulder -12.958109 -32.176119 21.660699
LeftArm 0.830279 1.754610 -5.297851
LeftForeArm 13.202453 -0.000000 -1.942331
LeftHand -10.007250 -0.000000 -1.531350
LeftHandThumb1 -26.253704 0.000000 33.147579
RightShoulder -11.577488 -1.469983 -14.550707
RightArm -1.082542 38.204076 8.247947
RightForeArm -35.493908 -0.000000 5.125882
RightHand -8.638167 -0.000000 5.509104
RightHandThumb1 -24.326973 -0.000000 -32.862282
LeftUpLeg 10.151978 7.379093 5.705476
LeftLeg -6.224381 -0.000000 0.000000
LeftFoot -20.771478 25.397751 -13.032398
LeftToeBase 25.287110 -0.000000 -0.000000
RightUpLeg 8.426130 -14.061931 -3.960222
RightLeg -3.571512 -0.000000 0.000000
RightFoot -20.857240 -23.770040 16.715316
RightToeBase 25.926194 -0.000000 -0.000000
1509
root 20.130765 35.232597 -22.724342 -178.828325 -0.534125 -178.715762
Spine -11.441154 2.916004 0.498773
Head 10.353808 -1.676298 -2.535201
LeftShoulder -12.990782 -32.209936 21.677769
LeftArm 0.849924 1.757625 -5.293023
LeftForeArm 13.186898 0.000000 -1.957475
LeftHand -10.012719 -0.000000 -1.534332
LeftHandThumb1 -26.253704 0.000000 33.147579
RightShoulder -11.593524 -1.445893 -14.552028
RightArm -1.067605 38.143812 8.231943
RightForeArm -35.435525 -0.000000 5.101711
RightHand -8.605371 -0.000000 5.461566
RightHandThumb1 -24.326973 -0.000000 -32.862282
LeftUpLeg 10.111693 7.359694 5.698106
LeftLeg -6.229005 -0.000000 0.000000
LeftFoot -20.777445 25.398982 -13.040858
LeftToeBase 25.257614 -0.000000 -0.000000
RightUpLeg 8.397578 -14.080794 -3.955539
RightLeg -3.583852 -0.000000 0.000000
RightFoot -20.855922 -23.805527 16.727557
RightToeBase 26.094675 -0.000000 -0.000000
1510
root 20.130924 35.232457 -22.725314 -178.786207 -0.551434 -178.715116
Spine -11.475664 2.912693 0.494961
Head 10.364659 -1.695953 -2.532336
LeftShoulder -12.999399 -32.228467 21.681348
LeftArm 0.857098 1.725613 -5.292162
LeftForeArm 13.200237 -0.000000 -1.944395
LeftHand -10.052051 -0.000000 -1.498508
LeftHandThumb1 -26.253704 0.000000 33.147579
RightShoulder -11.604582 -1.419386 -14.547321
RightArm -1.075886 38.102262 8.200584
RightForeArm -35.431358 -0.000000 5.099104
RightHand -8.593312 -0.000000 5.450453
RightHandThumb1 -24.326973 -0.000000 -32.862282
LeftUpLeg 10.076577 7.311394 5.695659
LeftLeg -6.236800 -0.000000 0.000000
LeftFoot -20.793591 25.366466 -13.080729
LeftToeBase 25.303800 -0.000000 -0.000000
RightUpLeg 8.361718 -14.075952 -3.941698
RightLeg -3.589084 -0.000000 0.000000
RightFoot -20.862597 -23.759510 16.845831
RightToeBase 25.717131 -0.000000 -0.000000
1511
root 20.129109 35.232294 -22.726591 -178.742492 -0.571727 -178.729664
Spine -11.513316 2.904241 0.477153
Head 10.370949 -1.691632 -2.530081
LeftShoulder -13.000842 -32.272421 21.686237
LeftArm 0.846801 1.712945 -5.283417
LeftForeArm 13.214760 0.000000 -1.926213
LeftHand -10.070874 -0.000000 -1.491385
LeftHandThumb1 -26.253704 0.000000 33.147579
RightShoulder -11.617641 -1.395008 -14.546761
RightArm -1.076100 38.017481 8.176845
RightForeArm -35.387417 -0.000000 5.092108
RightHand -8.601930 -0.000000 5.414394
RightHandThumb1 -24.326973 -0.000000 -32.862282
LeftUpLeg 10.029633 7.285486 5.665365
LeftLeg -6.243842 -0.000000 0.000000
LeftFoot -20.776752 25.430621 -13.060208
LeftToeBase 25.336362 -0.000000 -0.000000
RightUpLeg 8.321171 -14.063228 -3.944639
RightLeg -3.584419 -0.000000 0.000000
RightFoot -20.887091 -23.813568 16.747158
RightToeBase 25.948531 -0.000000 -0.000000
1512
root 20.127420 35.231881 -22.727144 -178.700278 -0.603329 -178.736240
Spine -11.546367 2.891825 0.473543
Head 10.379153 -1.729142 -2.550187
LeftShoulder -13.017172 -32.284734 21.665348
LeftArm 0.920088 1.766524 -5.280477
LeftForeArm 13.097465 -0.000000 -1.999985
LeftHand -10.080992 0.000000 -1.376364
LeftHandThumb1 -26.253704 0.000000 33.147579
RightShoulder -11.643360 -1.400983 -14.548072
RightArm -1.067733 38.052514 8.164399
RightForeArm -35.429532 -0.000000 5.110449
RightHand -8.625774 0.000000 5.411936
RightHandThumb1 -24.326973 -0.000000 -32.862282
LeftUpLeg 9.972272 7.271449 5.652445
LeftLeg -6.225331 -0.000000 0.000000
LeftFoot -20.791252 25.416950 -13.057469
LeftToeBase 25.275636 -0.000000 -0.000000
RightUpLeg 8.287105 -14.073880 -3.942513
RightLeg -3.588430 -0.000000 0.000000
RightFoot -20.890369 -23.846677 16.722546
RightToeBase 25.939363 -0.000000 -0.000000
1513
root 20.125636 35.231929 -22.727905 -178.662544 -0.635419 -178.749856
Spine -11.573406 2.871623 0.455919
Head 10.382451 -1.756203 -2.541802
LeftShoulder -13.033913 -32.333436 21.666528
LeftArm 0.936270 1.803058 -5.269009
LeftForeArm 13.066166 -0.000000 -1.988135
LeftHand -10.099985 -0.000000 -1.377823
LeftHandThumb1 -26.253704 0.000000 33.147579
RightShoulder -11.642737 -1.356977 -14.547173
RightArm -1.104453 38.012945 8.120664
RightForeArm -35.421070 -0.000000 5.124161
RightHand -8.645378 -0.000000 5.410028
RightHandThumb1 -24.326973 -0.000000 -32.862282
LeftUpLeg 9.924872 7.240579 5.637119
LeftLeg -6.207684 -0.000000 0.000000
LeftFoot -20.804371 25.358441 -13.091784
LeftToeBase 25.272414 -0.000000 -0.000000
RightUpLeg 8.260670 -14.075256 -3.946079
RightLeg -3.598057 -0.000000 0.000000
RightFoot -20.908515 -23.863214 16.741405
RightToeBase 25.942327 -0.000000 -0.000000
1514
root 20.124695 35.231785 -22.728839 -178.636477 -0.660131 -178.752185
Spine -11.584379 2.851839 0.454526
Head 10.375334 -1.772335 -2.533843
LeftShoulder -13.059677 -32.358501 21.677746
LeftArm 0.947976 1.800496 -5.276569
LeftForeArm 13.049386 -0.000000 -1.977116
LeftHand -10.121060 -0.000000 -1.355446
LeftHandThumb1 -26.253704 0.000000 33.147579
RightShoulder -11.653818 -1.336458 -14.553470
RightArm -1.095860 38.074199 8.120458
RightForeArm -35.452156 -0.000000 5.124744
RightHand -8.671195 -0.000000 5.375071
RightHandThumb1 -24.326973 -0.000000 -32.862282
LeftUpLeg 9.891639 7.219561 5.630981
LeftLeg -6.201337 -0.000000 0.000000
LeftFoot -20.807327 25.346315 -13.095866
LeftToeBase 25.264214 -0.000000 -0.000000
RightUpLeg 8.239882 -14.069589 -3.939925
RightLeg -3.598633 -0.000000 0.000000
RightFoot -20.929028 -23.891353 16.766792
RightToeBase 25.955130 -0.000000 -0.000000
